<svg width="64" height="64" viewBox="0 0 64 64" fill="none" xmlns="http://www.w3.org/2000/svg">
  <rect x="4" y="4" width="56" height="56" rx="18" fill="#F7F7F5"/>
  <rect x="4.75" y="4.75" width="54.5" height="54.5" rx="17.25" stroke="#D9DCE5" stroke-width="1.5"/>
  <path d="M24 18H35.5C42.4036 18 47 21.9707 47 27.35C47 30.8455 45.1341 33.5678 41.9326 34.8308C45.7771 35.7924 48 38.7957 48 43.1C48 49.0396 43.1368 53 35.5 53H24V18ZM31.2 24.2V32.2H35.2C38.5454 32.2 40.3 30.8453 40.3 28.15C40.3 25.5236 38.5317 24.2 35.2 24.2H31.2ZM31.2 38V46.8H35.9C39.6178 46.8 41.5 45.322 41.5 42.4C41.5 39.4649 39.6311 38 35.9 38H31.2Z" fill="#111827"/>
</svg>
